<?xml version="1.0" encoding="UTF-8"?>
<svg width="32" height="32" viewBox="0 0 100 100" xmlns="http://www.w3.org/2000/svg">
  <!-- Background circle for better visibility -->
  <circle cx="50" cy="50" r="49" fill="#1a1a1a" stroke="#333" stroke-width="1"/>
  
  <!-- Mining helmet -->
  <ellipse cx="50" cy="30" rx="22" ry="18" fill="#4a90e2" stroke="#2171b5" stroke-width="2"/>
  
  <!-- Helmet visor -->
  <ellipse cx="50" cy="26" rx="20" ry="12" fill="#6baed6" stroke="#2171b5" stroke-width="1"/>
  
  <!-- Mining lamp base -->
  <circle cx="50" cy="18" r="6" fill="#f39c12" stroke="#d68910" stroke-width="1.5"/>
  
  <!-- Mining lamp light -->
  <circle cx="50" cy="18" r="4" fill="#f7dc6f" stroke="#f4d03f" stroke-width="0.8"/>
  
  <!-- Mining lamp shine -->
  <circle cx="48.5" cy="16.5" r="1.5" fill="white" opacity="0.9"/>
  
  <!-- Beaver head -->
  <ellipse cx="50" cy="50" rx="20" ry="18" fill="#d2691e" stroke="#8b4513" stroke-width="2"/>
  
  <!-- Beaver ears -->
  <ellipse cx="38" cy="38" rx="4" ry="6" fill="#deb887" stroke="#8b4513" stroke-width="1.5"/>
  <ellipse cx="62" cy="38" rx="4" ry="6" fill="#deb887" stroke="#8b4513" stroke-width="1.5"/>
  
  <!-- Inner ears -->
  <ellipse cx="38" cy="38" rx="2" ry="3" fill="#f5deb3"/>
  <ellipse cx="62" cy="38" rx="2" ry="3" fill="#f5deb3"/>
  
  <!-- Eyes -->
  <circle cx="44" cy="46" r="3" fill="black"/>
  <circle cx="56" cy="46" r="3" fill="black"/>
  
  <!-- Eye shine -->
  <circle cx="44.8" cy="45.2" r="1" fill="white"/>
  <circle cx="56.8" cy="45.2" r="1" fill="white"/>
  
  <!-- Nose -->
  <ellipse cx="50" cy="52" rx="2" ry="1.5" fill="black"/>
  
  <!-- Mouth smile -->
  <path d="M 45 56 Q 50 60 55 56" stroke="black" stroke-width="2" fill="none"/>
  
  <!-- Beaver teeth -->
  <rect x="47" y="57" width="2.5" height="5" fill="white" stroke="#ddd" stroke-width="0.8"/>
  <rect x="50.5" y="57" width="2.5" height="5" fill="white" stroke="#ddd" stroke-width="0.8"/>
  
  <!-- Blush cheeks -->
  <circle cx="34" cy="50" r="3" fill="#ff69b4" opacity="0.4"/>
  <circle cx="66" cy="50" r="3" fill="#ff69b4" opacity="0.4"/>
  
  <!-- Beaver body -->
  <ellipse cx="50" cy="72" rx="18" ry="12" fill="#d2691e" stroke="#8b4513" stroke-width="2"/>
  
  <!-- Mining pickaxe handle -->
  <rect x="70" y="55" width="4" height="25" fill="#8b4513" stroke="#654321" stroke-width="1.5" transform="rotate(25 72 67.5)"/>
  
  <!-- Mining pickaxe head -->
  <polygon points="88,50 92,54 84,58 80,54" fill="#696969" stroke="#2f4f4f" stroke-width="1.5"/>
  
  <!-- Pickaxe details -->
  <line x1="80" y1="54" x2="92" y2="54" stroke="#2f4f4f" stroke-width="1"/>
  
  <!-- Beaver tail -->
  <ellipse cx="28" cy="75" rx="8" ry="15" fill="#8b4513" stroke="#654321" stroke-width="2"/>
  
  <!-- Tail pattern -->
  <line x1="22" y1="65" x2="34" y2="85" stroke="#654321" stroke-width="1.5"/>
  <line x1="25" y1="62" x2="31" y2="88" stroke="#654321" stroke-width="1.5"/>
  <line x1="28" y1="60" x2="28" y2="90" stroke="#654321" stroke-width="1.5"/>
  
  <!-- Left arm holding pickaxe -->
  <circle cx="70" cy="62" r="4" fill="#d2691e" stroke="#8b4513" stroke-width="1.5"/>
  
  <!-- Right arm -->
  <circle cx="32" cy="65" r="4" fill="#d2691e" stroke="#8b4513" stroke-width="1.5"/>
  
  <!-- Whiskers -->
  <line x1="28" y1="48" x2="36" y2="48" stroke="black" stroke-width="1"/>
  <line x1="28" y1="52" x2="36" y2="51" stroke="black" stroke-width="1"/>
  <line x1="64" y1="48" x2="72" y2="48" stroke="black" stroke-width="1"/>
  <line x1="64" y1="51" x2="72" y2="52" stroke="black" stroke-width="1"/>
</svg> 